<svg width="25" height="25" viewBox="0 0 25 25" fill="none" xmlns="http://www.w3.org/2000/svg">
<g clip-path="url(#clip0_206_14)">
<path d="M17.1374 14.4794L19.9383 17.2793L12.3581 24.8594L4.77903 17.2803L7.57996 14.4794L12.3592 19.2834L17.1374 14.4794V14.4794ZM21.9176 9.70019L24.7412 12.5001L21.9423 15.3L19.1414 12.5001L21.9176 9.70019V9.70019ZM12.3592 9.70019L15.1591 12.4754L12.3581 15.2763L9.55824 12.5001L12.3581 9.70122L12.3592 9.70019ZM2.79972 9.70019L5.57694 12.5001L2.80178 15.2753L-0.000183105 12.5001L2.79972 9.70019V9.70019ZM12.3602 0.139709L19.9393 7.69614L17.1384 10.495L12.3592 5.7158L7.58099 10.5198L4.78006 7.71985L12.3592 0.14074L12.3602 0.139709Z" fill="white"/>
</g>
<defs>
<clipPath id="clip0_206_14">
<rect width="24.7414" height="24.7414" fill="white" transform="translate(0 0.129303)"/>
</clipPath>
</defs>
</svg>
