<svg width="79" height="23" viewBox="0 0 79 23" fill="none" xmlns="http://www.w3.org/2000/svg">
<path fill-rule="evenodd" clip-rule="evenodd" d="M0.157524 0.17803C0.0127541 0.333704 0 1.25348 0 11.5149C0 22.2161 0.00723323 22.6888 0.174085 22.8357C0.333989 22.9767 1.28618 22.9891 11.9256 22.9891C23.2743 22.9891 23.5049 22.9856 23.6015 22.8099C23.6678 22.6891 23.7 18.995 23.7 11.4988C23.7 4.00262 23.6678 0.308498 23.6015 0.187757C23.5049 0.0120674 23.2742 0.00854708 11.909 0.00854708C0.797804 0.00854708 0.308481 0.0155904 0.157524 0.17803ZM27.8118 0.119744C27.6459 0.281257 27.6459 22.7164 27.8118 22.8779C27.9873 23.0488 35.2484 23.0364 35.3945 22.8651C35.4671 22.7799 35.508 21.5846 35.5251 19.0427L35.55 15.3444L39.3488 15.3201C41.9597 15.3035 43.1875 15.2636 43.2751 15.1929C43.3774 15.1102 43.4024 14.3853 43.4024 11.4988C43.4024 8.27237 43.3864 7.89467 43.2451 7.78042C43.1189 7.6784 42.3396 7.64809 39.2951 7.62706L35.5024 7.60084V3.91589C35.5024 1.17333 35.4732 0.202493 35.3882 0.119744C35.2242 -0.0399148 27.9758 -0.0399148 27.8118 0.119744ZM43.5806 0.161812C43.475 0.285703 43.45 0.985219 43.45 3.81868C43.45 7.05866 43.4627 7.3348 43.62 7.48779C43.7771 7.64087 44.0608 7.65328 47.3888 7.65328C50.2992 7.65328 51.0177 7.62891 51.145 7.52615C51.2864 7.4118 51.3024 7.03568 51.3024 3.81498C51.3024 1.1509 51.2731 0.2024 51.1882 0.119744C51.1033 0.0370886 50.129 0.00854708 47.3926 0.00854708C44.0844 0.00854708 43.698 0.0241138 43.5806 0.161812ZM55.3985 0.187757C55.3357 0.302197 55.3 1.62015 55.3 3.83027C55.3 6.67503 55.3241 7.32563 55.4351 7.47343C55.5648 7.64606 55.7173 7.65328 59.25 7.65328C62.7827 7.65328 62.9352 7.64606 63.0649 7.47343C63.1759 7.32563 63.2 6.6705 63.2 3.79663C63.2 0.741238 63.1811 0.28135 63.0505 0.154123C62.9196 0.0268031 62.4374 0.00854708 59.199 0.00854708C55.6364 0.00854708 55.4933 0.0153107 55.3985 0.187757ZM71.1985 0.187757C71.1357 0.302197 71.1 1.62015 71.1 3.83027C71.1 6.67402 71.1242 7.32572 71.2351 7.47343C71.3637 7.64485 71.532 7.65458 74.8281 7.68025C76.73 7.69508 78.3795 7.6846 78.4936 7.65699C79.0085 7.53217 79 7.59694 79 3.80775C79 0.742257 78.9811 0.281442 78.8505 0.154123C78.7196 0.0268031 78.2374 0.00854708 74.999 0.00854708C71.4364 0.00854708 71.2933 0.0153107 71.1985 0.187757ZM15.7015 7.87883C15.8361 8.12365 15.8361 14.874 15.7015 15.1188C15.6067 15.2913 15.4636 15.298 11.901 15.298C8.66259 15.298 8.1804 15.2798 8.04953 15.1524C7.91885 15.0251 7.9 14.5643 7.9 11.4988C7.9 8.43333 7.91885 7.97251 8.04953 7.84519C8.1804 7.71787 8.66259 7.69962 11.901 7.69962C15.4636 7.69962 15.6067 7.70638 15.7015 7.87883ZM63.2985 7.87883C63.2357 7.99318 63.2 9.30427 63.2 11.4988C63.2 13.6934 63.2357 15.0045 63.2985 15.1188C63.3934 15.2913 63.537 15.298 67.15 15.298C70.763 15.298 70.9066 15.2913 71.0015 15.1188C71.1361 14.874 71.1361 8.12365 71.0015 7.87883C70.9066 7.70629 70.763 7.69962 67.15 7.69962C63.537 7.69962 63.3934 7.70629 63.2985 7.87883ZM43.8131 15.3897C43.4085 15.5516 43.3944 15.6912 43.4229 19.2685C43.4446 21.9965 43.4763 22.7136 43.5806 22.836C43.6979 22.9735 44.0855 22.9891 47.3926 22.9891C50.129 22.9891 51.1033 22.9605 51.1882 22.8779C51.2731 22.7952 51.3024 21.8467 51.3024 19.1827C51.3024 15.9631 51.2864 15.5857 51.1452 15.4715C51.0191 15.3697 50.2951 15.3406 47.5045 15.3254C45.5886 15.3149 43.9275 15.3438 43.8131 15.3897ZM55.6807 15.3607C55.3106 15.4938 55.3 15.5992 55.3 19.1674C55.3 21.3775 55.3357 22.6954 55.3985 22.8099C55.4933 22.9823 55.6364 22.9891 59.199 22.9891C62.4374 22.9891 62.9196 22.9708 63.0505 22.8435C63.1811 22.7163 63.2 22.2564 63.2 19.201C63.2 16.3281 63.1759 15.672 63.0649 15.5242C62.9359 15.3523 62.773 15.3436 59.3767 15.3268C57.4224 15.3172 55.7592 15.3324 55.6807 15.3607ZM71.4807 15.3607C71.1106 15.4938 71.1 15.5992 71.1 19.1674C71.1 21.3775 71.1357 22.6954 71.1985 22.8099C71.2933 22.9823 71.4364 22.9891 74.999 22.9891C78.2374 22.9891 78.7196 22.9708 78.8505 22.8435C78.9811 22.7163 79 22.2564 79 19.201C79 16.3281 78.9759 15.672 78.8649 15.5242C78.7359 15.3523 78.573 15.3436 75.1767 15.3268C73.2224 15.3172 71.5592 15.3324 71.4807 15.3607Z" fill="black"/>
</svg>
