<svg width="76" height="22" viewBox="0 0 76 22" fill="none" xmlns="http://www.w3.org/2000/svg">
<g clip-path="url(#clip0_221_93)">
<path d="M13.5731 0.94104V20.6571H17.055V0.94104H13.5731Z" fill="black"/>
<path d="M12.3687 9.48444C11.8654 8.37265 11.0762 7.4298 10.0898 6.76173C9.10768 6.09993 7.95506 5.76903 6.63189 5.76903C5.41097 5.76903 4.36975 6.05877 3.50824 6.63824V1.34387H0V20.657H3.07214V19.8178C3.16753 19.8977 3.26596 19.9745 3.36745 20.048C4.28848 20.7194 5.43653 21.0547 6.81159 21.0539C8.08364 21.0539 9.19773 20.7186 10.1539 20.048C11.12 19.3651 11.8901 18.4192 12.3813 17.3121C12.9154 16.1588 13.1825 14.8579 13.1825 13.4097C13.1863 11.9374 12.915 10.629 12.3687 9.48444ZM9.1569 15.6408C8.9529 16.263 8.58457 16.8117 8.0947 17.2234C7.61625 17.6166 7.0016 17.8132 6.25073 17.8132C5.47316 17.8132 4.84972 17.6302 4.38043 17.2641C3.90274 16.8709 3.55387 16.3316 3.38233 15.7212C3.16416 14.9724 3.05949 14.1924 3.07214 13.4097C3.05971 12.6302 3.16359 11.8536 3.38004 11.1078C3.54774 10.503 3.8856 9.9653 4.34953 9.56477C4.80737 9.1987 5.39761 9.01567 6.12025 9.01567C6.89782 9.01567 7.53384 9.21549 8.02831 9.61512C8.54076 10.0213 8.92802 10.5762 9.14202 11.2109C9.38797 11.9149 9.50938 12.66 9.50029 13.4097C9.5103 14.1686 9.39411 14.9236 9.1569 15.6408V15.6408Z" fill="black"/>
<path d="M51.2286 12.3151L54.8135 8.49415L54.7906 3.63978L52.9352 5.76903L47.3484 11.8115V1.34387H43.8138L43.8024 10.0335C43.4695 8.84415 42.7715 7.8029 41.8165 7.07105C40.7153 6.20304 39.3494 5.76903 37.7188 5.76903C36.3101 5.76903 35.0892 6.09993 34.056 6.76173C33.0295 7.41867 32.1974 8.36126 31.6523 9.48444C31.4316 9.93421 31.2537 10.4057 31.1212 10.892C30.984 10.3929 30.7964 9.91062 30.5615 9.45327C29.9955 8.32607 29.1394 7.38744 28.0903 6.74374C27.0395 6.09154 25.8186 5.76504 24.4275 5.76424C23.0624 5.76424 21.8544 6.08634 20.8037 6.73056C19.7569 7.37101 18.9011 8.30428 18.3324 9.4257C17.735 10.5703 17.4362 11.8982 17.4362 13.4097C17.4362 14.9019 17.7266 16.2251 18.3073 17.3792C18.8729 18.4989 19.724 19.4323 20.7659 20.0756C21.8151 20.7278 23.036 21.0539 24.4287 21.0539C25.8213 21.0539 27.0376 20.7322 28.0777 20.0888C29.125 19.4485 29.9809 18.5147 30.5489 17.3924C30.7895 16.9288 30.9814 16.4392 31.1212 15.9322C31.248 16.4076 31.417 16.8696 31.626 17.3121C32.1488 18.4387 32.9655 19.3873 33.9816 20.048C35.0056 20.7194 36.235 21.0547 37.6695 21.0539C39.272 21.0539 40.6207 20.6383 41.7157 19.807C42.6841 19.0701 43.3773 18.0558 43.7955 16.7642V20.6511H47.3552V12.9421L52.1432 20.6559H56.6701L51.2286 12.3151ZM26.9251 16.4717C26.3795 17.2597 25.5473 17.6534 24.4287 17.6526C23.3443 17.6526 22.5206 17.2725 21.9574 16.5124C21.3943 15.7523 21.1169 14.7181 21.1253 13.4097C21.1108 12.6562 21.2272 11.9063 21.4687 11.1965C21.6819 10.5977 22.0609 10.0792 22.5572 9.70744C23.0441 9.35017 23.6671 9.17153 24.4264 9.17153C25.5275 9.17153 26.3554 9.55598 26.9102 10.3249C27.4649 11.0938 27.7476 12.122 27.7583 13.4097C27.7583 14.6565 27.4806 15.6772 26.9251 16.4717ZM43.7944 16.2319L40.3823 15.4862C40.177 16.1831 39.8695 16.7194 39.4597 17.0951C39.0499 17.4708 38.4524 17.6586 37.6672 17.6586C36.618 17.6586 35.824 17.2697 35.2853 16.4921C34.7466 15.7144 34.4822 14.6869 34.4921 13.4097C34.4811 12.6754 34.5939 11.9449 34.8252 11.2516C35.0187 10.6494 35.3799 10.1216 35.8622 9.73621C36.3315 9.36136 36.9332 9.17353 37.6672 9.17273C38.2923 9.16656 38.8997 9.38965 39.3842 9.80335C39.9145 10.2518 40.2919 10.8679 40.4601 11.5598L43.8024 10.633L43.7944 16.2319Z" fill="black"/>
<path d="M57.6885 1.34387L56.1777 2.82692L56.2086 7.62254L58.4554 5.31345V20.6595H62.0152V1.34387H57.6885Z" fill="url(#paint0_linear_221_93)"/>
<path d="M76.0032 14.5678C76.018 15.7296 75.7111 16.8711 75.1196 17.854C74.2677 19.2284 72.9778 20.2416 71.4796 20.7132C69.9813 21.1847 68.3719 21.0841 66.9379 20.4293C66.1086 20.0409 65.3635 19.4796 64.7482 18.7796C64.1296 18.0671 63.6774 17.2138 63.4273 16.287L66.8074 15.3483C66.959 16.0114 67.3311 16.5962 67.857 16.998C68.3581 17.3726 68.9583 17.5742 69.5739 17.5747C70.0822 17.5807 70.5824 17.4414 71.0207 17.1718C71.4559 16.9126 71.8182 16.538 72.0715 16.0856C72.3362 15.6292 72.4738 15.1043 72.4686 14.5702C72.476 14.1753 72.4076 13.7829 72.2677 13.4161C72.1277 13.0494 71.9189 12.7157 71.6537 12.435C71.1157 11.8363 70.424 11.537 69.5785 11.537C69.3264 11.5362 69.0758 11.5767 68.8356 11.6569C68.5956 11.7306 68.365 11.8344 68.1489 11.9662L66.5773 9.0936L71.5461 4.77754H64.1439V1.34387H75.6678V4.77754L71.9261 8.56488C72.5923 8.75855 73.2149 9.08951 73.7575 9.5384C74.4843 10.1222 75.0597 10.8877 75.4309 11.7648C75.814 12.6444 76.0093 13.601 76.0032 14.5678V14.5678Z" fill="url(#paint1_linear_221_93)"/>
</g>
<defs>
<linearGradient id="paint0_linear_221_93" x1="49.3718" y1="21.8272" x2="77.7891" y2="-5.03694" gradientUnits="userSpaceOnUse">
<stop stop-color="#DDAE79"/>
<stop offset="0.34" stop-color="#CE8E42"/>
<stop offset="0.36" stop-color="#D09248"/>
<stop offset="0.39" stop-color="#D79D57"/>
<stop offset="0.43" stop-color="#E2AF71"/>
<stop offset="0.46" stop-color="#F1C995"/>
<stop offset="0.48" stop-color="#F9D7A9"/>
<stop offset="0.49" stop-color="#F7D4A6"/>
<stop offset="0.58" stop-color="#EBC392"/>
<stop offset="0.68" stop-color="#E3B784"/>
<stop offset="0.8" stop-color="#DEB07B"/>
<stop offset="1" stop-color="#DDAE79"/>
</linearGradient>
<linearGradient id="paint1_linear_221_93" x1="48.7648" y1="22.1946" x2="71.9377" y2="-24.1689" gradientUnits="userSpaceOnUse">
<stop stop-color="#DDAE79"/>
<stop offset="0.34" stop-color="#CE8E42"/>
<stop offset="0.36" stop-color="#D09248"/>
<stop offset="0.39" stop-color="#D79D57"/>
<stop offset="0.43" stop-color="#E2AF71"/>
<stop offset="0.46" stop-color="#F1C995"/>
<stop offset="0.48" stop-color="#F9D7A9"/>
<stop offset="0.49" stop-color="#F7D4A6"/>
<stop offset="0.58" stop-color="#EBC392"/>
<stop offset="0.68" stop-color="#E3B784"/>
<stop offset="0.8" stop-color="#DEB07B"/>
<stop offset="1" stop-color="#DDAE79"/>
</linearGradient>
<clipPath id="clip0_221_93">
<rect width="76" height="20.1176" fill="white" transform="translate(0 0.941162)"/>
</clipPath>
</defs>
</svg>
