<svg width="369" height="98" viewBox="0 0 369 98" fill="none" xmlns="http://www.w3.org/2000/svg">
<g clip-path="url(#clip0_2_60405)">
<path d="M64.5338 0.0734863V111.265H84.1706V0.0734863H64.5338Z" fill="white"/>
<path d="M59.9809 41.5041C57.5403 36.1126 53.7133 31.5403 48.9295 28.3005C44.1669 25.0912 38.5774 23.4865 32.1608 23.4865C26.24 23.4865 21.1907 24.8916 17.0129 27.7017V2.0271H0V95.6847H14.8981V91.6149C15.3606 92.0025 15.838 92.3746 16.3302 92.7312C20.7966 95.987 26.364 97.613 33.0322 97.6091C39.2009 97.6091 44.6036 95.9832 49.2403 92.7312C53.9255 89.4196 57.66 84.8326 60.042 79.4637C62.6323 73.8706 63.9274 67.5624 63.9274 60.5391C63.946 53.3995 62.6304 47.0545 59.9809 41.5041ZM44.4056 71.359C43.4163 74.376 41.6302 77.0372 39.2546 79.0334C36.9344 80.9404 33.9537 81.8939 30.3124 81.8939C26.5416 81.8939 23.5183 81.0063 21.2425 79.2311C18.926 77.3243 17.2342 74.7089 16.4023 71.7485C15.3443 68.1174 14.8367 64.335 14.8981 60.5391C14.8378 56.7594 15.3416 52.9931 16.3912 49.3763C17.2045 46.4437 18.8429 43.836 21.0927 41.8936C23.313 40.1184 26.1753 39.2308 29.6796 39.2308C33.4504 39.2308 36.5347 40.1998 38.9326 42.1378C41.4177 44.1075 43.2957 46.7984 44.3335 49.8763C45.5262 53.2905 46.1149 56.9038 46.0708 60.5391C46.1194 64.2196 45.5559 67.8809 44.4056 71.359Z" fill="white"/>
<path d="M248.428 55.2309L265.812 36.7018L265.701 13.1609L256.704 23.4865L229.611 52.7891V2.0271H212.47L212.415 44.1669C210.8 38.399 207.415 33.3496 202.784 29.8005C197.444 25.5912 190.821 23.4865 182.913 23.4865C176.082 23.4865 170.161 25.0912 165.15 28.3005C160.173 31.4863 156.137 36.0573 153.494 41.5041C152.424 43.6852 151.561 45.9715 150.918 48.3297C150.253 45.9096 149.343 43.5708 148.204 41.3529C145.459 35.8867 141.308 31.3349 136.22 28.2133C131.125 25.0505 125.204 23.4672 118.458 23.4633C111.838 23.4633 105.98 25.0253 100.884 28.1494C95.808 31.2552 91.6582 35.781 88.9004 41.2192C86.0029 46.7696 84.5542 53.2096 84.5542 60.5391C84.5542 67.7756 85.9622 74.1923 88.7783 79.7893C91.5212 85.2192 95.6486 89.7456 100.701 92.8649C105.789 96.0277 111.71 97.6091 118.463 97.6091C125.217 97.6091 131.115 96.0491 136.159 92.9289C141.238 89.8239 145.388 85.2954 148.143 79.8532C149.31 77.6049 150.241 75.2305 150.918 72.7718C151.533 75.0775 152.353 77.3179 153.366 79.4637C155.902 84.9272 159.862 89.5272 164.79 92.7312C169.756 95.987 175.717 97.613 182.674 97.6091C190.445 97.6091 196.986 95.5936 202.296 91.5626C206.992 87.9889 210.353 83.0703 212.381 76.8067V95.6556H229.644V58.2717L252.863 95.6789H274.816L248.428 55.2309ZM130.57 75.3881C127.924 79.2098 123.888 81.1187 118.463 81.1148C113.205 81.1148 109.21 79.2718 106.479 75.5857C103.749 71.8997 102.403 66.8841 102.444 60.5391C102.374 56.8855 102.938 53.2489 104.109 49.8065C105.143 46.9027 106.981 44.3883 109.388 42.5855C111.749 40.8529 114.77 39.9867 118.452 39.9867C123.792 39.9867 127.807 41.851 130.497 45.5797C133.188 49.3084 134.559 54.2949 134.61 60.5391C134.61 66.5857 133.263 71.5353 130.57 75.3881ZM212.376 74.2253L195.829 70.609C194.834 73.9888 193.342 76.5896 191.355 78.4113C189.368 80.2331 186.471 81.1439 182.663 81.1439C177.575 81.1439 173.724 79.2582 171.112 75.4869C168.499 71.7156 167.217 66.733 167.265 60.5391C167.212 56.9784 167.759 53.4358 168.88 50.0739C169.819 47.1535 171.57 44.594 173.909 42.725C176.185 40.9072 179.103 39.9963 182.663 39.9925C185.694 39.9625 188.639 41.0444 190.989 43.0506C193.561 45.2251 195.391 48.2133 196.207 51.5681L212.415 47.0739L212.376 74.2253Z" fill="white"/>
<path d="M279.755 2.0271L272.428 9.21901L272.578 32.475L283.474 21.2772V95.6964H300.736V2.0271H279.755Z" fill="url(#paint0_linear_2_60405)"/>
<path d="M368.566 66.1554C368.638 71.7896 367.149 77.3248 364.281 82.0916C360.15 88.7566 353.895 93.6699 346.629 95.9568C339.363 98.2437 331.559 97.7558 324.604 94.5801C320.583 92.6968 316.97 89.9747 313.986 86.58C310.986 83.1248 308.793 78.987 307.58 74.4927L323.972 69.9404C324.707 73.1558 326.511 75.9919 329.062 77.9404C331.492 79.7572 334.402 80.7348 337.388 80.7369C339.852 80.7661 342.278 80.0907 344.404 78.7834C346.514 77.5262 348.271 75.7096 349.499 73.516C350.783 71.3025 351.45 68.7569 351.425 66.1671C351.461 64.252 351.129 62.3489 350.451 60.5704C349.772 58.7918 348.759 57.1739 347.473 55.8124C344.864 52.9092 341.51 51.4577 337.41 51.4577C336.187 51.4539 334.972 51.6501 333.807 52.0391C332.644 52.3965 331.525 52.9001 330.477 53.5391L322.856 39.6088L346.951 18.6784H311.055V2.0271H366.94V18.6784L348.794 37.0448C352.025 37.9839 355.044 39.5889 357.675 41.7657C361.2 44.5969 363.99 48.3091 365.791 52.5623C367.648 56.8281 368.595 61.4669 368.566 66.1554Z" fill="url(#paint1_linear_2_60405)"/>
</g>
<defs>
<linearGradient id="paint0_linear_2_60405" x1="239.423" y1="101.359" x2="377.231" y2="-28.9161" gradientUnits="userSpaceOnUse">
<stop stop-color="#DDAE79"/>
<stop offset="0.34" stop-color="#CE8E42"/>
<stop offset="0.36" stop-color="#D09248"/>
<stop offset="0.39" stop-color="#D79D57"/>
<stop offset="0.43" stop-color="#E2AF71"/>
<stop offset="0.46" stop-color="#F1C995"/>
<stop offset="0.48" stop-color="#F9D7A9"/>
<stop offset="0.49" stop-color="#F7D4A6"/>
<stop offset="0.58" stop-color="#EBC392"/>
<stop offset="0.68" stop-color="#E3B784"/>
<stop offset="0.8" stop-color="#DEB07B"/>
<stop offset="1" stop-color="#DDAE79"/>
</linearGradient>
<linearGradient id="paint1_linear_2_60405" x1="236.475" y1="103.141" x2="348.851" y2="-121.695" gradientUnits="userSpaceOnUse">
<stop stop-color="#DDAE79"/>
<stop offset="0.34" stop-color="#CE8E42"/>
<stop offset="0.36" stop-color="#D09248"/>
<stop offset="0.39" stop-color="#D79D57"/>
<stop offset="0.43" stop-color="#E2AF71"/>
<stop offset="0.46" stop-color="#F1C995"/>
<stop offset="0.48" stop-color="#F9D7A9"/>
<stop offset="0.49" stop-color="#F7D4A6"/>
<stop offset="0.58" stop-color="#EBC392"/>
<stop offset="0.68" stop-color="#E3B784"/>
<stop offset="0.8" stop-color="#DEB07B"/>
<stop offset="1" stop-color="#DDAE79"/>
</linearGradient>
<clipPath id="clip0_2_60405">
<rect width="368.556" height="97.5588" fill="white" transform="translate(0 0.0737305)"/>
</clipPath>
</defs>
</svg>
