<svg width="100" height="28" viewBox="0 0 100 28" fill="none" xmlns="http://www.w3.org/2000/svg">
<g clip-path="url(#clip0_206_46)">
<path d="M17.8589 0.735229V26.6773H22.4404V0.735229H17.8589Z" fill="white"/>
<path d="M16.2746 11.9766C15.6124 10.5137 14.574 9.27312 13.276 8.39408C11.9838 7.52329 10.4672 7.0879 8.72617 7.0879C7.11969 7.0879 5.74967 7.46913 4.6161 8.23159V1.26532H0V26.6774H4.04229V25.5731C4.1678 25.6783 4.29732 25.7793 4.43086 25.876C5.64274 26.7594 7.15333 27.2006 8.96262 27.1995C10.6364 27.1995 12.1023 26.7584 13.3603 25.876C14.6316 24.9775 15.6449 23.7329 16.2912 22.2761C16.994 20.7586 17.3454 19.047 17.3454 17.1414C17.3504 15.2042 16.9935 13.4826 16.2746 11.9766ZM12.0486 20.0771C11.7801 20.8957 11.2955 21.6178 10.6509 22.1594C10.0214 22.6768 9.21263 22.9355 8.22465 22.9355C7.20152 22.9355 6.38122 22.6947 5.76373 22.213C5.13518 21.6957 4.67615 20.986 4.45044 20.1828C4.16337 19.1976 4.02565 18.1713 4.04229 17.1414C4.02593 16.1158 4.16262 15.0939 4.44742 14.1125C4.66808 13.3168 5.11263 12.6093 5.72306 12.0823C6.32549 11.6006 7.10212 11.3598 8.05295 11.3598C9.07608 11.3598 9.91295 11.6227 10.5636 12.1485C11.2378 12.683 11.7474 13.4131 12.029 14.2482C12.3526 15.1746 12.5123 16.155 12.5004 17.1414C12.5136 18.14 12.3607 19.1334 12.0486 20.0771Z" fill="white"/>
<path d="M67.4063 15.7011L72.1233 10.6736L72.0932 4.28625L69.6519 7.0879L62.3008 15.0385V1.26532H57.65L57.635 12.6991C57.1969 11.1341 56.2785 9.76404 55.0219 8.80107C53.5731 7.65896 51.7758 7.0879 49.6302 7.0879C47.7767 7.0879 46.1703 7.52329 44.8108 8.39408C43.4602 9.25848 42.3652 10.4987 41.648 11.9766C41.3576 12.5684 41.1235 13.1887 40.9492 13.8286C40.7687 13.1719 40.5218 12.5374 40.2127 11.9356C39.468 10.4524 38.3416 9.21739 36.9611 8.37042C35.5786 7.51225 33.9721 7.08264 32.1417 7.08159C30.3455 7.08159 28.7561 7.50541 27.3735 8.35306C25.9961 9.19576 24.8702 10.4238 24.1219 11.8993C23.3357 13.4053 22.9426 15.1526 22.9426 17.1414C22.9426 19.1048 23.3247 20.8459 24.0888 22.3645C24.833 23.8378 25.9529 25.0659 27.3238 25.9123C28.7044 26.7705 30.3108 27.1995 32.1432 27.1995C33.9756 27.1995 35.5761 26.7763 36.9446 25.9297C38.3226 25.0872 39.4488 23.8585 40.1962 22.3818C40.5128 21.7718 40.7653 21.1276 40.9492 20.4604C41.116 21.086 41.3384 21.6939 41.6134 22.2761C42.3013 23.7586 43.3759 25.0067 44.7129 25.876C46.0603 26.7594 47.6778 27.2006 49.5654 27.1995C51.6739 27.1995 53.4486 26.6527 54.8894 25.5589C56.1635 24.5893 57.0757 23.2547 57.6259 21.5552V26.6695H62.3098V16.5261L68.6097 26.6758H74.5662L67.4063 15.7011ZM35.428 21.1703C34.7101 22.2073 33.6152 22.7252 32.1432 22.7242C30.7165 22.7242 29.6326 22.2241 28.8916 21.2239C28.1506 20.2238 27.7857 18.8629 27.7967 17.1414C27.7777 16.15 27.9308 15.1633 28.2485 14.2293C28.5291 13.4414 29.0278 12.7592 29.6808 12.27C30.3214 11.7999 31.1412 11.5649 32.1402 11.5649C33.5891 11.5649 34.6784 12.0707 35.4084 13.0824C36.1383 14.0941 36.5103 15.4471 36.5244 17.1414C36.5244 18.782 36.1589 20.125 35.428 21.1703ZM57.6244 20.8548L53.1348 19.8736C52.8647 20.7907 52.4601 21.4963 51.9209 21.9906C51.3818 22.4849 50.5956 22.732 49.5624 22.732C48.1819 22.732 47.1371 22.2204 46.4283 21.1971C45.7194 20.1739 45.3715 18.8219 45.3846 17.1414C45.3702 16.1752 45.5185 15.214 45.8229 14.3018C46.0775 13.5094 46.5527 12.815 47.1874 12.3079C47.8048 11.8146 48.5965 11.5675 49.5624 11.5664C50.3848 11.5583 51.1841 11.8519 51.8215 12.3962C52.5193 12.9862 53.016 13.797 53.2372 14.7073L57.635 13.4879L57.6244 20.8548Z" fill="white"/>
<path d="M75.9063 1.26532L73.9183 3.2167L73.9589 9.52673L76.9153 6.48845V26.6806H81.5992V1.26532H75.9063Z" fill="url(#paint0_linear_206_46)"/>
<path d="M100.004 18.6652C100.023 20.1939 99.6195 21.6958 98.8412 22.9892C97.7203 24.7976 96.0231 26.1307 94.0517 26.7512C92.0803 27.3717 89.9627 27.2394 88.0758 26.3777C86.9846 25.8667 86.0042 25.1281 85.1947 24.207C84.3807 23.2695 83.7857 22.1468 83.4567 20.9274L87.9041 19.6922C88.1036 20.5646 88.5932 21.3342 89.2851 21.8628C89.9445 22.3558 90.7342 22.621 91.5442 22.6216C92.213 22.6295 92.8712 22.4463 93.4479 22.0916C94.0205 21.7505 94.4973 21.2576 94.8305 20.6624C95.1788 20.0618 95.3599 19.3711 95.3531 18.6684C95.3628 18.1488 95.2728 17.6324 95.0886 17.1498C94.9045 16.6673 94.6298 16.2283 94.2808 15.8588C93.5729 15.0711 92.6628 14.6773 91.5503 14.6773C91.2186 14.6763 90.8888 14.7295 90.5728 14.835C90.257 14.932 89.9536 15.0687 89.6692 15.242L87.6014 11.4623L94.1392 5.7833H84.3995V1.26532H99.5626V5.7833L94.6392 10.7667C95.5158 11.0215 96.335 11.457 97.0489 12.0476C98.0053 12.8158 98.7624 13.823 99.2508 14.977C99.7549 16.1344 100.012 17.3931 100.004 18.6652Z" fill="url(#paint1_linear_206_46)"/>
</g>
<defs>
<linearGradient id="paint0_linear_206_46" x1="64.9632" y1="28.217" x2="102.354" y2="-7.13048" gradientUnits="userSpaceOnUse">
<stop stop-color="#DDAE79"/>
<stop offset="0.34" stop-color="#CE8E42"/>
<stop offset="0.36" stop-color="#D09248"/>
<stop offset="0.39" stop-color="#D79D57"/>
<stop offset="0.43" stop-color="#E2AF71"/>
<stop offset="0.46" stop-color="#F1C995"/>
<stop offset="0.48" stop-color="#F9D7A9"/>
<stop offset="0.49" stop-color="#F7D4A6"/>
<stop offset="0.58" stop-color="#EBC392"/>
<stop offset="0.68" stop-color="#E3B784"/>
<stop offset="0.8" stop-color="#DEB07B"/>
<stop offset="1" stop-color="#DDAE79"/>
</linearGradient>
<linearGradient id="paint1_linear_206_46" x1="64.1638" y1="28.7005" x2="94.6545" y2="-32.3041" gradientUnits="userSpaceOnUse">
<stop stop-color="#DDAE79"/>
<stop offset="0.34" stop-color="#CE8E42"/>
<stop offset="0.36" stop-color="#D09248"/>
<stop offset="0.39" stop-color="#D79D57"/>
<stop offset="0.43" stop-color="#E2AF71"/>
<stop offset="0.46" stop-color="#F1C995"/>
<stop offset="0.48" stop-color="#F9D7A9"/>
<stop offset="0.49" stop-color="#F7D4A6"/>
<stop offset="0.58" stop-color="#EBC392"/>
<stop offset="0.68" stop-color="#E3B784"/>
<stop offset="0.8" stop-color="#DEB07B"/>
<stop offset="1" stop-color="#DDAE79"/>
</linearGradient>
<clipPath id="clip0_206_46">
<rect width="100" height="26.4706" fill="white" transform="translate(0 0.735352)"/>
</clipPath>
</defs>
</svg>
